# xmcd CD database file
#
# Track frame offsets:
#	151
#	23510
#	40973
#	56158
#	78165
#	94370
#	112171
#	127510
#	146217
#	162774
#	185531
#	204768
#	225277
#	247434
#	270261
#	297260
#	319261
#	346068
#
# Disc length: 4799 seconds
#
# Revision: 0
# Processed by: cddbd v1.5.1PL0 Copyright (c) Steve Scherf et al.
# Submitted via: CDex 1.51
#
DISCID=f812bd12
DTITLE=BarRoco - Salsa Cumbiando 2005
DYEAR=2005
DGENRE=Salsa
TTITLE0=REFLEXIONES
TTITLE1=SUN SUN BA BAE
TTITLE2=CUMBIA QUE CAYO DEL CIELO
TTITLE3=DESILUCION
TTITLE4=PA LA TIMBA
TTITLE5=LA SONRISA DE TUS LABIOS
TTITLE6=PAN DE PIQUITO
TTITLE7=GUARACHITA DEL TREN
TTITLE8=ARPA SONORAMICA
TTITLE9=LA MITAD
TTITLE10=OYEME CHACHITA
TTITLE11=CUMBIA DE LAS IGLESIAS
TTITLE12=TE VA A DOLER
TTITLE13=CARRUSELES
TTITLE14=CONGA YE
TTITLE15=SI VOLVIERAS A MI
TTITLE16=URGE
TTITLE17=A PESAR DE TODO
EXTD=YEAR: 2005
EXTT0=
EXTT1=
EXTT2=
EXTT3=
EXTT4=
EXTT5=
EXTT6=
EXTT7=
EXTT8=
EXTT9=
EXTT10=
EXTT11=
EXTT12=
EXTT13=
EXTT14=
EXTT15=
EXTT16=
EXTT17=
PLAYORDER=
